<svg id="visual" viewBox="0 0 900 600" width="900" height="600" xmlns="http://www.w3.org/2000/svg" xmlns:xlink="http://www.w3.org/1999/xlink" version="1.1"><rect x="0" y="0" width="900" height="600" fill="#fffacd"></rect><defs><linearGradient id="grad1_0" x1="33.3%" y1="0%" x2="100%" y2="100%"><stop offset="20%" stop-color="#fffacd" stop-opacity="1"></stop><stop offset="80%" stop-color="#fffacd" stop-opacity="1"></stop></linearGradient></defs><defs><linearGradient id="grad2_0" x1="0%" y1="0%" x2="66.7%" y2="100%"><stop offset="20%" stop-color="#fffacd" stop-opacity="1"></stop><stop offset="80%" stop-color="#fffacd" stop-opacity="1"></stop></linearGradient></defs><g transform="translate(900, 0)"><path d="M0 162.2C-23.7 159.3 -47.5 156.4 -58.2 140.4C-68.9 124.5 -66.6 95.6 -82.7 82.7C-98.9 69.9 -133.6 73.2 -149.9 62.1C-166.2 51 -164.2 25.5 -162.2 0L0 0Z" fill="#deb887"></path></g><g transform="translate(0, 600)"><path d="M0 -162.2C15.5 -145 31 -127.7 50.1 -121C69.3 -114.4 92.1 -118.3 110.3 -110.3C128.5 -102.3 142 -82.5 149.9 -62.1C157.8 -41.7 160 -20.9 162.2 0L0 0Z" fill="#deb887"></path></g></svg>